<svg id="Logo_Vecto" data-name="Logo Vecto" xmlns="http://www.w3.org/2000/svg" viewBox="0 0 7264.67 1579.1"><defs><style>.cls-1{stroke:#000;stroke-width:240px;}.cls-1,.cls-2{stroke-linejoin:round;}.cls-2{fill:#fff;stroke:#fff;stroke-width:155px;}.cls-3{fill:#ff9800;}</style></defs><title>Logo</title><g id="Logo_Black" data-name="Logo Black"><path id="RA_Black" data-name="RA Black" class="cls-1" d="M2009.33,3578.36l24.8-60.34q-62.82-36.33-94.09-75.59l-150.33,90.82L1712,3639.3l-105.27,213.3-73.88,41-40.13,72.07-4.17,74.41q-62.61,95.52-112,189.27l-40.1,174.16-8.81-3.46-11.46-16.42-13.35-8.2q-69.61-34-106.5-89.65l-13.45-7.62-12.76-8.19-37.57-32.83q-62.57-52.74-87.33-121.87l-30.65-32.22q468.33-204.51,400.35-503.94-172.68-141.78-369.51-138.28Q790.63,3480.72,793.17,3953q-32.77,88.5-80,145.91-4.38,60.93,13.22,97.85l3.22,24L711.55,4335q-8.31,107.82-21.28,178.72,11,8.2,11.47,16.41,40.29,19.32,84.34,7.61,17.43-28.71,36.4-48.63l9.63-16.41q31-96.09,74.23-154.11l24.13,73.25,25.62,15.81,23.52,32.81,32.56,16.42,39,24,24.82,24.61q52.82,21.69,84.87,48.63l25.53,16.42,27.4,8.2,50.44,40.43,20.37,8.21,11.47,16.4,19.79,8.2,20.48,7.62,102.07,73.24,90,16.41,44.74-56.84,9-56.84q-11-8.19-11.46-16.4-11.6-8.22-12-16.41l-12.77-8.21-18.58-15.81q-29.07-27.55-40.81-56.84a173.73,173.73,0,0,1-36.15-29.5l59-51,105-237.3L1795.07,4169q-78.28,242.59-46.17,228.53l33.73,134.77Q2162.84,4063,2009.33,3578.36ZM996.07,3796.53l3.35-21.1,41.42-128.32Q1232.45,3698.68,996.07,3796.53Zm726.64,196.69,88-152.35L1824.79,3985Z" transform="translate(-570.27 -3290.19)"/><path id="S_Black" data-name="S Black" class="cls-1" d="M2505.36,3806.88q-34.74-28.7-51.2-61.51,123.78-134.17,299.32-106.65,174.76-193.35-52.33-198.64-367.87,36.35-439.21,312.9,11.51,245.52,384.48,321.1,30.36,34,26,76.18-133.78,119.53-277.39,160.54-80.79,47.49-147.36,60.95-9,8.79-16.44,7.62-88.68,45.69-155,60.94-56.67,32.23-87,68.56,509.34,65.6,828.05-259.58Q3002.73,3914.71,2505.36,3806.88Z" transform="translate(-570.27 -3290.19)"/><path id="E_Black" data-name="E Black" class="cls-1" d="M3083.42,4238.92l3.81-24,25.85-63.27,24.63-55.67h24l17-7.62h63.29q77.34-11.11,127.15,0,312.87-107.23,56.78-206.84l-42.44,16.4h-24l-84.72-16.4-76.59-15.82,3.72-23.44,10.11-15.82,30.85-143,25.33-8.21,32.85-7.61h63.28Q3477,3640.68,3552.19,3636q107.32-130.08-71.66-198.63L3430,3453.15h-87.32l-24.73,8.21-14.52-8.21-54.46-7.6h-24q-36.19-8.21-62-8.21l-19.63,24q-32.76,55.09-61.88,87.31l-10.12,15.81q-32.47,31.08-49.86,63.29,26.07,72.09,9,143-27.49,103.16-89.64,166.41-18.34,86.16,1.36,143l-45.36,134.76-17,55.68q-37,118.93-39.09,198.63,72.48,27,148.08,15.82h24q140.57,52.15,271.42,39.85,37.86-50.37,46.77-95.51-59.28-47.46-77.28-111.33l-62.66-7.63q-70.73-23.41-121.55-31.63l3.81-24Z" transform="translate(-570.27 -3290.19)"/><path id="N_Black" data-name="N Black" class="cls-1" d="M4296.12,3442.43l-1.93-32.24q-16.95,40.44-27.31,39.26l-24.44,21.1q-31.23,49.23-74.42,70.31L4141.36,3576,4131,3597.11q10.55,25.79-4.11,70.33l-26.32,77.34-10.37,21.08-12.6,35.18-10.37,21.08-3.34,21.09-23,56.25Q4007.63,3965.12,3995,4012l-10.72-21.1q-4.42-35.14-12.19-56.25l-35.43-175.78q44.45-77.34,44.48-147.66-72.73-55.07-157.26-28.13-61.82,38.68-96.63,77.35l-19.63,35.15q-25,58-35.22,133.6-23.71,38.68-45.19,63.29l-4.45,28.12-14.83,49.23L3593.06,4019l-13.71,42.2L3569,4082.29l-14.82,49.22-7.8,49.21-10.37,21.1q-7.58,40.44-18.17,70.31l-3.34,21.1q-28.63,69.74-40,119.54,44,51,45.46,112.5,56.71-58.59,118.83-84.39,41.86-179.28,140.42-309.37l10.72,21.09,10.72,21.1,4.8,14.06,20.33,49.21q14.19,113.69,68.36,189.86,55.66,11.15,105.47,0,275-285.94,273.8-618.77Q4336.91,3595.36,4296.12,3442.43Z" transform="translate(-570.27 -3290.19)"/><path id="C_Black" data-name="C Black" class="cls-1" d="M4840.54,3776l59.63,8.19q325.56-205.65-49.34-346.87H4720.75q-56.06,24.63-101,34.57-456.39,376.77-353.46,859,30.19,216.24,247.47,191,231.26,12.29,341.76-182.23-7.08-29.31-30.48-25.79-302,116-357.31-104.29-20.51-284.77,165.64-494.55,106-103.11,204.7-34.57Q4812.4,3739.12,4840.54,3776Z" transform="translate(-570.27 -3290.19)"/><path id="RA_Black-2" data-name="RA Black" class="cls-1" d="M6264.43,3578.36l24.79-60.34q-62.82-36.33-94.08-75.59l-150.33,90.82-77.74,106.05L5861.8,3852.6l-73.87,41-40.14,72.07-4.16,74.41q-62.61,95.52-112,189.27l-40.1,174.16-8.82-3.46-11.46-16.42-13.34-8.2q-69.61-34-106.5-89.65l-13.45-7.62-12.76-8.19-37.57-32.83q-62.56-52.74-87.33-121.87l-30.65-32.22Q5738,3878.56,5670,3579.13q-172.68-141.78-369.5-138.28-254.74,39.87-252.22,512.12-32.76,88.5-79.95,145.91-4.38,60.93,13.21,97.85l3.23,24L4966.65,4335q-8.31,107.82-21.28,178.72,11,8.2,11.46,16.41,40.31,19.32,84.34,7.61,17.44-28.71,36.41-48.63l9.63-16.41q31.05-96.09,74.23-154.11l24.13,73.25,25.62,15.81,23.52,32.81,32.55,16.42,39,24,24.82,24.61q52.81,21.69,84.88,48.63l25.52,16.42,27.41,8.2,50.44,40.43,20.37,8.21,11.46,16.4,19.8,8.2,20.48,7.62,102.07,73.24,90,16.41,44.73-56.84,9-56.84q-11-8.19-11.47-16.4c-7.72-5.48-11.75-10.94-12-16.41l-12.76-8.21-18.59-15.81q-29.06-27.55-40.81-56.84a173.66,173.66,0,0,1-36.14-29.5l59-51,105-237.3L6050.16,4169q-78.27,242.59-46.17,228.53l33.73,134.77Q6417.94,4063,6264.43,3578.36ZM5251.17,3796.53l3.34-21.1,41.42-128.32Q5487.54,3698.68,5251.17,3796.53Zm726.64,196.69,88-152.35L6079.89,3985Z" transform="translate(-570.27 -3290.19)"/><path id="F_Black" data-name="F Black" class="cls-1" d="M6990.79,3547.49q-123.48-41.59-213.94-43.95-89.12-66.21-195.76-66.2-105.36,143.57-105.19,294.14-15.37,30.49-17,59.18-18.67,44-27.46,80.87-68.61,41-97.2,103.12l-11.69,73.83q44,44,28.82,95.51-6.36,36.35-16.31,58.6l-9.38,59.18q-14.49,113.68-52.52,191,25.68,26.37,28.73,51.56,98.4,66.81,181-73.24-4.1-185.15,89.44-331.65H6594l56.76,15.23H6680l21.15,7,20.48,7.63L6844.74,4144q56.61,19.93,106.63,22.27,46.88-55.65,39.81-110.74-16.35-52.14-38.76-80.87-516.89-55.07-215.85-264.85h51.56l43.42,7q55.62,18.75,99,22.26l92.57,22.27q25-35.73,52.12-51.57,7.13-82-14.74-140Z" transform="translate(-570.27 -3290.19)"/><path id="T_Black" data-name="T Black" class="cls-1" d="M7404.42,3441.84q-201.08,48.64-289.63,215.63Q7136,3789.91,7279.26,3777q-20.11,60.36-24.15,104.29l-37.87,239.08q-12.42,93.18-33.54,160,2.52,58-16.43,103.72a333.18,333.18,0,0,1-5.63,87.3l17-7.62q85.26,145.91,203-72.07l10.11-63.86.62-55.68,12-24,8.82-55.67,15.23-48.06q40.1-109,44.87-183.4l3.81-24q55.13-111.33,65.09-207.43,150.18-34.56,172.69-184Q7582.18,3421.93,7404.42,3441.84Z" transform="translate(-570.27 -3290.19)"/></g><g id="Logo_White" data-name="Logo White"><path id="RA_White" data-name="RA White" class="cls-2" d="M2009.33,3578.36l24.8-60.34q-62.82-36.33-94.09-75.59l-150.33,90.82L1712,3639.3l-105.27,213.3-73.88,41-40.13,72.07-4.17,74.41q-62.61,95.52-112,189.27l-40.1,174.16-8.81-3.46-11.46-16.42-13.35-8.2q-69.61-34-106.5-89.65l-13.45-7.62-12.76-8.19-37.57-32.83q-62.57-52.74-87.33-121.87l-30.65-32.22q468.33-204.51,400.35-503.94-172.68-141.78-369.51-138.28Q790.63,3480.72,793.17,3953q-32.77,88.5-80,145.91-4.38,60.93,13.22,97.85l3.22,24L711.55,4335q-8.31,107.82-21.28,178.72,11,8.2,11.47,16.41,40.29,19.32,84.34,7.61,17.43-28.71,36.4-48.63l9.63-16.41q31-96.09,74.23-154.11l24.13,73.25,25.62,15.81,23.52,32.81,32.56,16.42,39,24,24.82,24.61q52.82,21.69,84.87,48.63l25.53,16.42,27.4,8.2,50.44,40.43,20.37,8.21,11.47,16.4,19.79,8.2,20.48,7.62,102.07,73.24,90,16.41,44.74-56.84,9-56.84q-11-8.19-11.46-16.4-11.6-8.22-12-16.41l-12.77-8.21-18.58-15.81q-29.07-27.55-40.81-56.84a173.73,173.73,0,0,1-36.15-29.5l59-51,105-237.3L1795.07,4169q-78.28,242.59-46.17,228.53l33.73,134.77Q2162.84,4063,2009.33,3578.36ZM996.07,3796.53l3.35-21.1,41.42-128.32Q1232.45,3698.68,996.07,3796.53Zm726.64,196.69,88-152.35L1824.79,3985Z" transform="translate(-570.27 -3290.19)"/><path id="S_White" data-name="S White" class="cls-2" d="M2505.36,3806.88q-34.74-28.7-51.2-61.51,123.78-134.17,299.32-106.65,174.76-193.35-52.33-198.64-367.87,36.35-439.21,312.9,11.51,245.52,384.48,321.1,30.36,34,26,76.18-133.78,119.53-277.39,160.54-80.79,47.49-147.36,60.95-9,8.79-16.44,7.62-88.68,45.69-155,60.94-56.67,32.23-87,68.56,509.34,65.6,828.05-259.58Q3002.73,3914.71,2505.36,3806.88Z" transform="translate(-570.27 -3290.19)"/><path id="E_White" data-name="E White" class="cls-2" d="M3083.42,4238.92l3.81-24,25.85-63.27,24.63-55.67h24l17-7.62h63.29q77.34-11.11,127.15,0,312.87-107.23,56.78-206.84l-42.44,16.4h-24l-84.72-16.4-76.59-15.82,3.72-23.44,10.11-15.82,30.85-143,25.33-8.21,32.85-7.61h63.28Q3477,3640.68,3552.19,3636q107.32-130.08-71.66-198.63L3430,3453.15h-87.32l-24.73,8.21-14.52-8.21-54.46-7.6h-24q-36.19-8.21-62-8.21l-19.63,24q-32.76,55.09-61.88,87.31l-10.12,15.81q-32.47,31.08-49.86,63.29,26.07,72.09,9,143-27.49,103.16-89.64,166.41-18.34,86.16,1.36,143l-45.36,134.76-17,55.68q-37,118.93-39.09,198.63,72.48,27,148.08,15.82h24q140.57,52.15,271.42,39.85,37.86-50.37,46.77-95.51-59.28-47.46-77.28-111.33l-62.66-7.63q-70.73-23.41-121.55-31.63l3.81-24Z" transform="translate(-570.27 -3290.19)"/><path id="N_White" data-name="N White" class="cls-2" d="M4296.12,3442.43l-1.93-32.24q-16.95,40.44-27.31,39.26l-24.44,21.1q-31.23,49.23-74.42,70.31L4141.36,3576,4131,3597.11q10.55,25.79-4.11,70.33l-26.32,77.34-10.37,21.08-12.6,35.18-10.37,21.08-3.34,21.09-23,56.25Q4007.63,3965.12,3995,4012l-10.72-21.1q-4.42-35.14-12.19-56.25l-35.43-175.78q44.45-77.34,44.48-147.66-72.73-55.07-157.26-28.13-61.82,38.68-96.63,77.35l-19.63,35.15q-25,58-35.22,133.6-23.71,38.68-45.19,63.29l-4.45,28.12-14.83,49.23L3593.06,4019l-13.71,42.2L3569,4082.29l-14.82,49.22-7.8,49.21-10.37,21.1q-7.58,40.44-18.17,70.31l-3.34,21.1q-28.63,69.74-40,119.54,44,51,45.46,112.5,56.71-58.59,118.83-84.39,41.86-179.28,140.42-309.37l10.72,21.09,10.72,21.1,4.8,14.06,20.33,49.21q14.19,113.69,68.36,189.86,55.66,11.15,105.47,0,275-285.94,273.8-618.77Q4336.91,3595.36,4296.12,3442.43Z" transform="translate(-570.27 -3290.19)"/><path id="C_White" data-name="C White" class="cls-2" d="M4840.54,3776l59.63,8.19q325.56-205.65-49.34-346.87H4720.75q-56.06,24.63-101,34.57-456.39,376.77-353.46,859,30.19,216.24,247.47,191,231.26,12.29,341.76-182.23-7.08-29.31-30.48-25.79-302,116-357.31-104.29-20.51-284.77,165.64-494.55,106-103.11,204.7-34.57Q4812.4,3739.12,4840.54,3776Z" transform="translate(-570.27 -3290.19)"/><path id="RA_White-2" data-name="RA White" class="cls-2" d="M6264.43,3578.36l24.79-60.34q-62.82-36.33-94.08-75.59l-150.33,90.82-77.74,106.05L5861.8,3852.6l-73.87,41-40.14,72.07-4.16,74.41q-62.61,95.52-112,189.27l-40.1,174.16-8.82-3.46-11.46-16.42-13.34-8.2q-69.61-34-106.5-89.65l-13.45-7.62-12.76-8.19-37.57-32.83q-62.56-52.74-87.33-121.87l-30.65-32.22Q5738,3878.56,5670,3579.13q-172.68-141.78-369.5-138.28-254.74,39.87-252.22,512.12-32.76,88.5-79.95,145.91-4.38,60.93,13.21,97.85l3.23,24L4966.65,4335q-8.31,107.82-21.28,178.72,11,8.2,11.46,16.41,40.31,19.32,84.34,7.61,17.44-28.71,36.41-48.63l9.63-16.41q31.05-96.09,74.23-154.11l24.13,73.25,25.62,15.81,23.52,32.81,32.55,16.42,39,24,24.82,24.61q52.81,21.69,84.88,48.63l25.52,16.42,27.41,8.2,50.44,40.43,20.37,8.21,11.46,16.4,19.8,8.2,20.48,7.62,102.07,73.24,90,16.41,44.73-56.84,9-56.84q-11-8.19-11.47-16.4c-7.72-5.48-11.75-10.94-12-16.41l-12.76-8.21-18.59-15.81q-29.06-27.55-40.81-56.84a173.66,173.66,0,0,1-36.14-29.5l59-51,105-237.3L6050.16,4169q-78.27,242.59-46.17,228.53l33.73,134.77Q6417.94,4063,6264.43,3578.36ZM5251.17,3796.53l3.34-21.1,41.42-128.32Q5487.54,3698.68,5251.17,3796.53Zm726.64,196.69,88-152.35L6079.89,3985Z" transform="translate(-570.27 -3290.19)"/><path id="F_White" data-name="F White" class="cls-2" d="M6990.79,3547.49q-123.48-41.59-213.94-43.95-89.12-66.21-195.76-66.2-105.36,143.57-105.19,294.14-15.37,30.49-17,59.18-18.67,44-27.46,80.87-68.61,41-97.2,103.12l-11.69,73.83q44,44,28.82,95.51-6.36,36.35-16.31,58.6l-9.38,59.18q-14.49,113.68-52.52,191,25.68,26.37,28.73,51.56,98.4,66.81,181-73.24-4.1-185.15,89.44-331.65H6594l56.76,15.23H6680l21.15,7,20.48,7.63L6844.74,4144q56.61,19.93,106.63,22.27,46.88-55.65,39.81-110.74-16.35-52.14-38.76-80.87-516.89-55.07-215.85-264.85h51.56l43.42,7q55.62,18.75,99,22.26l92.57,22.27q25-35.73,52.12-51.57,7.13-82-14.74-140Z" transform="translate(-570.27 -3290.19)"/><path id="T_White" data-name="T White" class="cls-2" d="M7404.42,3441.84q-201.08,48.64-289.63,215.63Q7136,3789.91,7279.26,3777q-20.11,60.36-24.15,104.29l-37.87,239.08q-12.42,93.18-33.54,160,2.52,58-16.43,103.72a333.18,333.18,0,0,1-5.63,87.3l17-7.62q85.26,145.91,203-72.07l10.11-63.86.62-55.68,12-24,8.82-55.67,15.23-48.06q40.1-109,44.87-183.4l3.81-24q55.13-111.33,65.09-207.43,150.18-34.56,172.69-184Q7582.18,3421.93,7404.42,3441.84Z" transform="translate(-570.27 -3290.19)"/></g><g id="Logo_Color" data-name="Logo Color"><path id="RA_Color" data-name="RA Color" class="cls-3" d="M2009.33,3578.36l24.8-60.34q-62.82-36.33-94.09-75.59l-150.33,90.82L1712,3639.3l-105.27,213.3-73.88,41-40.13,72.07-4.17,74.41q-62.61,95.52-112,189.27l-40.1,174.16-8.81-3.46-11.46-16.42-13.35-8.2q-69.61-34-106.5-89.65l-13.45-7.62-12.76-8.19-37.57-32.83q-62.57-52.74-87.33-121.87l-30.65-32.22q468.33-204.51,400.35-503.94-172.68-141.78-369.51-138.28Q790.63,3480.72,793.17,3953q-32.77,88.5-80,145.91-4.38,60.93,13.22,97.85l3.22,24L711.55,4335q-8.31,107.82-21.28,178.72,11,8.2,11.47,16.41,40.29,19.32,84.34,7.61,17.43-28.71,36.4-48.63l9.63-16.41q31-96.09,74.23-154.11l24.13,73.25,25.62,15.81,23.52,32.81,32.56,16.42,39,24,24.82,24.61q52.82,21.69,84.87,48.63l25.53,16.42,27.4,8.2,50.44,40.43,20.37,8.21,11.47,16.4,19.79,8.2,20.48,7.62,102.07,73.24,90,16.41,44.74-56.84,9-56.84q-11-8.19-11.46-16.4-11.6-8.22-12-16.41l-12.77-8.21-18.58-15.81q-29.07-27.55-40.81-56.84a173.73,173.73,0,0,1-36.15-29.5l59-51,105-237.3L1795.07,4169q-78.28,242.59-46.17,228.53l33.73,134.77Q2162.84,4063,2009.33,3578.36ZM996.07,3796.53l3.35-21.1,41.42-128.32Q1232.45,3698.68,996.07,3796.53Zm726.64,196.69,88-152.35L1824.79,3985Z" transform="translate(-570.27 -3290.19)"/><path id="S_Color" data-name="S Color" class="cls-3" d="M2505.36,3806.88q-34.74-28.7-51.2-61.51,123.78-134.17,299.32-106.65,174.76-193.35-52.33-198.64-367.87,36.35-439.21,312.9,11.51,245.52,384.48,321.1,30.36,34,26,76.18-133.78,119.53-277.39,160.54-80.79,47.49-147.36,60.95-9,8.79-16.44,7.62-88.68,45.69-155,60.94-56.67,32.23-87,68.56,509.34,65.6,828.05-259.58Q3002.73,3914.71,2505.36,3806.88Z" transform="translate(-570.27 -3290.19)"/><path id="E_Color" data-name="E Color" class="cls-3" d="M3083.42,4238.92l3.81-24,25.85-63.27,24.63-55.67h24l17-7.62h63.29q77.34-11.11,127.15,0,312.87-107.23,56.78-206.84l-42.44,16.4h-24l-84.72-16.4-76.59-15.82,3.72-23.44,10.11-15.82,30.85-143,25.33-8.21,32.85-7.61h63.28Q3477,3640.68,3552.19,3636q107.32-130.08-71.66-198.63L3430,3453.15h-87.32l-24.73,8.21-14.52-8.21-54.46-7.6h-24q-36.19-8.21-62-8.21l-19.63,24q-32.76,55.09-61.88,87.31l-10.12,15.81q-32.47,31.08-49.86,63.29,26.07,72.09,9,143-27.49,103.16-89.64,166.41-18.34,86.16,1.36,143l-45.36,134.76-17,55.68q-37,118.93-39.09,198.63,72.48,27,148.08,15.82h24q140.57,52.15,271.42,39.85,37.86-50.37,46.77-95.51-59.28-47.46-77.28-111.33l-62.66-7.63q-70.73-23.41-121.55-31.63l3.81-24Z" transform="translate(-570.27 -3290.19)"/><path id="N_Color" data-name="N Color" class="cls-3" d="M4296.12,3442.43l-1.93-32.24q-16.95,40.44-27.31,39.26l-24.44,21.1q-31.23,49.23-74.42,70.31L4141.36,3576,4131,3597.11q10.55,25.79-4.11,70.33l-26.32,77.34-10.37,21.08-12.6,35.18-10.37,21.08-3.34,21.09-23,56.25Q4007.63,3965.12,3995,4012l-10.72-21.1q-4.42-35.14-12.19-56.25l-35.43-175.78q44.45-77.34,44.48-147.66-72.73-55.07-157.26-28.13-61.82,38.68-96.63,77.35l-19.63,35.15q-25,58-35.22,133.6-23.71,38.68-45.19,63.29l-4.45,28.12-14.83,49.23L3593.06,4019l-13.71,42.2L3569,4082.29l-14.82,49.22-7.8,49.21-10.37,21.1q-7.58,40.44-18.17,70.31l-3.34,21.1q-28.63,69.74-40,119.54,44,51,45.46,112.5,56.71-58.59,118.83-84.39,41.86-179.28,140.42-309.37l10.72,21.09,10.72,21.1,4.8,14.06,20.33,49.21q14.19,113.69,68.36,189.86,55.66,11.15,105.47,0,275-285.94,273.8-618.77Q4336.91,3595.36,4296.12,3442.43Z" transform="translate(-570.27 -3290.19)"/><path id="C_Color" data-name="C Color" class="cls-3" d="M4840.54,3776l59.63,8.19q325.56-205.65-49.34-346.87H4720.75q-56.06,24.63-101,34.57-456.39,376.77-353.46,859,30.19,216.24,247.47,191,231.26,12.29,341.76-182.23-7.08-29.31-30.48-25.79-302,116-357.31-104.29-20.51-284.77,165.64-494.55,106-103.11,204.7-34.57Q4812.4,3739.12,4840.54,3776Z" transform="translate(-570.27 -3290.19)"/><path id="RA_Color-2" data-name="RA Color" class="cls-3" d="M6264.43,3578.36l24.79-60.34q-62.82-36.33-94.08-75.59l-150.33,90.82-77.74,106.05L5861.8,3852.6l-73.87,41-40.14,72.07-4.16,74.41q-62.61,95.52-112,189.27l-40.1,174.16-8.82-3.46-11.46-16.42-13.34-8.2q-69.61-34-106.5-89.65l-13.45-7.62-12.76-8.19-37.57-32.83q-62.56-52.74-87.33-121.87l-30.65-32.22Q5738,3878.56,5670,3579.13q-172.68-141.78-369.5-138.28-254.74,39.87-252.22,512.12-32.76,88.5-79.95,145.91-4.38,60.93,13.21,97.85l3.23,24L4966.65,4335q-8.31,107.82-21.28,178.72,11,8.2,11.46,16.41,40.31,19.32,84.34,7.61,17.44-28.71,36.41-48.63l9.63-16.41q31.05-96.09,74.23-154.11l24.13,73.25,25.62,15.81,23.52,32.81,32.55,16.42,39,24,24.82,24.61q52.81,21.69,84.88,48.63l25.52,16.42,27.41,8.2,50.44,40.43,20.37,8.21,11.46,16.4,19.8,8.2,20.48,7.62,102.07,73.24,90,16.41,44.73-56.84,9-56.84q-11-8.19-11.47-16.4c-7.72-5.48-11.75-10.94-12-16.41l-12.76-8.21-18.59-15.81q-29.06-27.55-40.81-56.84a173.66,173.66,0,0,1-36.14-29.5l59-51,105-237.3L6050.16,4169q-78.27,242.59-46.17,228.53l33.73,134.77Q6417.94,4063,6264.43,3578.36ZM5251.17,3796.53l3.34-21.1,41.42-128.32Q5487.54,3698.68,5251.17,3796.53Zm726.64,196.69,88-152.35L6079.89,3985Z" transform="translate(-570.27 -3290.19)"/><path id="F_Color" data-name="F Color" class="cls-3" d="M6990.79,3547.49q-123.48-41.59-213.94-43.95-89.12-66.21-195.76-66.2-105.36,143.57-105.19,294.14-15.37,30.49-17,59.18-18.67,44-27.46,80.87-68.61,41-97.2,103.12l-11.69,73.83q44,44,28.82,95.51-6.36,36.35-16.31,58.6l-9.38,59.18q-14.49,113.68-52.52,191,25.68,26.37,28.73,51.56,98.4,66.81,181-73.24-4.1-185.15,89.44-331.65H6594l56.76,15.23H6680l21.15,7,20.48,7.63L6844.74,4144q56.61,19.93,106.63,22.27,46.88-55.65,39.81-110.74-16.35-52.14-38.76-80.87-516.89-55.07-215.85-264.85h51.56l43.42,7q55.62,18.75,99,22.26l92.57,22.27q25-35.73,52.12-51.57,7.13-82-14.74-140Z" transform="translate(-570.27 -3290.19)"/><path id="T_Color" data-name="T Color" class="cls-3" d="M7404.42,3441.84q-201.08,48.64-289.63,215.63Q7136,3789.91,7279.26,3777q-20.11,60.36-24.15,104.29l-37.87,239.08q-12.42,93.18-33.54,160,2.52,58-16.43,103.72a333.18,333.18,0,0,1-5.63,87.3l17-7.62q85.26,145.91,203-72.07l10.11-63.86.62-55.68,12-24,8.82-55.67,15.23-48.06q40.1-109,44.87-183.4l3.81-24q55.13-111.33,65.09-207.43,150.18-34.56,172.69-184Q7582.18,3421.93,7404.42,3441.84Z" transform="translate(-570.27 -3290.19)"/></g></svg>